<svg width="47" height="46" viewBox="0 0 47 46" fill="none" xmlns="http://www.w3.org/2000/svg">
<path d="M16.2602 43.8637H11.5039C8.98099 43.8637 6.56141 42.8502 4.77744 41.0461C2.99347 39.242 1.99124 36.7952 1.99124 34.2438V19.1117C1.99121 17.4576 2.41293 15.8315 3.21568 14.3903C4.01844 12.9491 5.1751 11.7416 6.57397 10.8843L18.4648 3.59727C19.9514 2.68625 21.6565 2.20459 23.3948 2.20459C25.133 2.20459 26.8381 2.68625 28.3247 3.59727L40.2155 10.8843C41.6141 11.7414 42.7705 12.9485 43.5732 14.3892C44.376 15.83 44.7979 17.4556 44.7983 19.1093V34.2438C44.7983 36.7952 43.796 39.242 42.0121 41.0461C40.2281 42.8502 37.8085 43.8637 35.2856 43.8637H30.5293M16.2602 43.8637V34.2438C16.2602 32.3303 17.0119 30.4951 18.3499 29.1421C19.6879 27.789 21.5026 27.0289 23.3948 27.0289C25.2869 27.0289 27.1016 27.789 28.4396 29.1421C29.7776 30.4951 30.5293 32.3303 30.5293 34.2438V43.8637M16.2602 43.8637H30.5293" stroke="#F88208" stroke-width="4" stroke-linecap="round" stroke-linejoin="round"/>
</svg>
