<svg width="52" height="51" viewBox="0 0 52 51" fill="none" xmlns="http://www.w3.org/2000/svg">
<rect x="0.5" width="51" height="51" rx="25.5" fill="white"/>
<path d="M37.934 25.4679C37.934 26.4322 37.8474 27.1359 37.6601 27.8657H25.4765V23.5131H32.628C32.4839 22.4314 31.7053 20.8024 29.975 19.7078L29.9508 19.562L33.803 16.8647L34.0699 16.8406C36.521 18.8867 37.934 21.8971 37.934 25.4679Z" fill="#4285F4"/>
<path d="M25.4765 14.0001C28.9802 14.0001 31.9215 15.0427 34.0699 16.8411L29.975 19.7082C28.8793 19.0175 27.4086 18.5353 25.4765 18.5353C22.045 18.5353 19.1325 20.5812 18.0943 23.4092L17.9421 23.3975L13.9365 20.5956L13.8841 20.464C16.018 16.6326 20.4012 14.0001 25.4765 14.0001Z" fill="#34A853"/>
<path d="M18.0943 23.409C17.8203 24.1388 17.6618 24.9208 17.6618 25.7288C17.6618 26.5368 17.8203 27.3187 18.0799 28.0485L18.0726 28.2039L14.0168 31.0508L13.8841 30.9937C13.0046 29.4038 12.5 27.6184 12.5 25.7288C12.5 23.8391 13.0046 22.0538 13.8841 20.4639L18.0943 23.409Z" fill="#FBBC05"/>
<path d="M25.4765 32.9219C27.9132 32.9219 29.5569 31.9706 30.4941 31.1756L34.1564 34.4075C31.9072 36.2972 28.9802 37.457 25.4765 37.457C20.4012 37.457 16.018 34.8246 13.8841 30.9932L18.0799 28.0479C19.1325 30.8759 22.045 32.9219 25.4765 32.9219Z" fill="#EB4335"/>
</svg>
