<svg width="234" height="109" viewBox="0 0 234 109" fill="none" xmlns="http://www.w3.org/2000/svg">
<path d="M63.572 77.9474C63.583 73.5366 63.6094 69.1812 63.6008 64.8259C63.5916 60.1688 59.5664 57.4905 56.3455 57.3945C52.1445 57.2694 49.1604 60.2543 48.5798 62.9812C48.4527 63.5783 48.3441 64.1739 48.3451 64.7914C48.3528 69.5476 48.3494 74.3037 48.3478 79.0599C48.3472 80.7203 47.3378 81.7481 45.6747 81.7512C41.3303 81.7591 36.9859 81.7589 32.6415 81.7536C29.6596 81.7499 26.8404 79.38 26.2743 76.4358C26.167 75.8777 26.1268 75.3221 26.1271 74.7563C26.1306 65.9032 26.1313 57.0502 26.1278 48.1971C26.1271 46.5126 26.6651 45.0262 27.8971 43.8883C30.3826 41.5924 32.9189 39.3516 35.4415 37.0963C39.9619 33.055 44.4865 29.0182 49.0124 24.9831C50.0297 24.076 51.0467 23.1679 52.0865 22.287C54.4066 20.3217 57.4651 20.3011 59.7841 22.4705C61.6876 24.2511 63.7139 25.8997 65.6852 27.6074C66.1111 27.9764 66.5802 28.3219 66.6536 28.9406C66.7375 29.647 66.6933 30.3158 65.9863 30.7326C65.2766 31.1511 64.5574 31.098 63.9456 30.6061C62.7561 29.6497 61.6166 28.6309 60.4575 27.6367C59.316 26.6578 58.1811 25.6713 57.0336 24.6996C56.0551 23.8709 55.1569 23.9246 54.0808 24.8751C52.478 26.2908 50.8824 27.7149 49.2862 29.1381C43.2348 34.5334 37.2053 39.9535 31.118 45.3076C29.7261 46.5319 29.1615 47.934 29.1708 49.7579C29.2126 57.975 29.1875 66.1925 29.1874 74.4098C29.1873 76.8772 30.9835 78.6795 33.451 78.6804C37.0205 78.6818 40.5899 78.6776 44.1594 78.6732C45.1493 78.672 45.1511 78.6678 45.1514 77.6428C45.1522 73.4517 45.1509 69.2606 45.1521 65.0696C45.1537 59.3781 48.8242 55.0014 54.4534 54.2984C60.489 53.5446 65.1124 56.7851 66.4385 62.2372C66.7064 63.3387 66.7676 64.4659 66.7697 65.5951C66.7774 69.6213 66.7762 73.6476 66.7847 77.6738C66.7868 78.6721 66.7979 78.6762 67.8155 78.6769C71.2911 78.6795 74.7669 78.7063 78.242 78.6672C79.809 78.6496 81.2008 78.1522 82.0816 76.7179C82.4995 76.0372 82.6418 75.2861 82.6414 74.4928C82.6375 65.4043 82.6385 56.3158 82.6403 47.2273C82.6404 46.8291 82.6109 46.43 82.7555 46.0404C83.0153 45.3403 83.577 44.9961 84.4285 45.0473C85.1454 45.0903 85.5388 45.5193 85.6756 46.1812C85.7653 46.6153 85.8113 47.0664 85.8116 47.5099C85.8179 56.4336 85.8371 65.3574 85.8003 74.2809C85.7886 77.1276 84.8594 79.5597 82.1403 80.9406C81.107 81.4654 80.0089 81.7649 78.8279 81.7607C74.5775 81.7455 70.327 81.7573 66.0765 81.7528C64.4385 81.7511 63.6293 80.9292 63.6057 79.2723C63.5997 78.8491 63.5835 78.4259 63.572 77.9474Z" fill="white"/>
<path d="M88.501 34.8816C89.2824 35.0754 90.0083 35.2602 90.7362 35.4367C91.5867 35.6428 92.0189 36.0909 92.0271 36.7883C92.0356 37.5017 91.5921 38.0061 90.6885 38.1755C88.9494 38.5017 87.2547 38.955 85.6964 39.8162C81.6956 42.027 79.2892 45.4375 78.2363 49.8531C78.1222 50.3318 78.0519 50.8208 77.948 51.3021C77.7916 52.0269 77.2806 52.4717 76.5894 52.5011C75.8689 52.5317 75.2505 52.1053 75.0608 51.3978C74.8909 50.7643 74.8028 50.1078 74.6169 49.4799C72.7803 43.2802 68.7819 39.4354 62.3753 38.2351C61.1972 38.0144 60.6417 37.1095 61.1184 36.1556C61.3556 35.6808 61.7883 35.5323 62.2633 35.4392C64.9392 34.9143 67.3566 33.8204 69.458 32.0727C72.4614 29.5751 74.3633 26.425 75.0199 22.5399C75.1811 21.5857 75.6885 21.1739 76.5217 21.1838C77.2932 21.1929 77.7745 21.6571 77.9448 22.5598C79.0987 28.6757 82.7519 32.6476 88.501 34.8816ZM81.7801 34.6455C79.5681 32.9613 77.8594 30.8398 76.4623 28.3014C75.4106 30.1804 74.2474 31.7915 72.8132 33.1972C71.3854 34.5966 69.7472 35.7061 67.8305 36.7356C71.7232 38.6219 74.445 41.4839 76.4569 45.2702C78.4463 41.4701 81.1656 38.6157 84.9788 36.6987C83.7865 36.029 82.7914 35.4153 81.7801 34.6455Z" fill="white"/>
<path d="M104.711 48.879V27.55H113.104C114.711 27.55 116.082 27.8382 117.217 28.4145C118.36 28.9838 119.229 29.7926 119.825 30.841C120.427 31.8825 120.728 33.1079 120.728 34.5174C120.728 35.9338 120.424 37.1523 119.814 38.1729C119.205 39.1866 118.322 39.9642 117.165 40.5057C116.016 41.0473 114.624 41.3181 112.99 41.3181H107.37V37.6938H112.263C113.121 37.6938 113.835 37.5758 114.403 37.3397C114.97 37.1037 115.393 36.7496 115.67 36.2774C115.954 35.8053 116.096 35.2186 116.096 34.5174C116.096 33.8092 115.954 33.2121 115.67 32.7261C115.393 32.2401 114.967 31.8721 114.392 31.6221C113.824 31.3652 113.108 31.2368 112.242 31.2368H109.209V48.879H104.711ZM116.199 39.1727L121.487 48.879H116.521L111.349 39.1727H116.199Z" fill="white"/>
<path d="M130.545 49.1915C128.904 49.1915 127.491 48.8582 126.307 48.1917C125.13 47.5182 124.223 46.567 123.586 45.3381C122.949 44.1022 122.63 42.6407 122.63 40.9536C122.63 39.3081 122.949 37.8639 123.586 36.6211C124.223 35.3783 125.119 34.4098 126.276 33.7155C127.439 33.0212 128.803 32.674 130.368 32.674C131.421 32.674 132.401 32.8441 133.308 33.1843C134.222 33.5176 135.018 34.0209 135.697 34.6944C136.383 35.3679 136.916 36.2149 137.297 37.2356C137.677 38.2493 137.868 39.4365 137.868 40.7973V42.0158H124.396V39.2664H133.703C133.703 38.6276 133.564 38.0618 133.287 37.5688C133.01 37.0759 132.626 36.6905 132.134 36.4128C131.649 36.1282 131.085 35.9858 130.441 35.9858C129.769 35.9858 129.174 36.142 128.655 36.4545C128.142 36.76 127.74 37.1731 127.45 37.6938C127.159 38.2076 127.01 38.7804 127.003 39.4122V42.0263C127.003 42.8178 127.148 43.5017 127.439 44.0779C127.737 44.6542 128.156 45.0986 128.696 45.411C129.236 45.7234 129.877 45.8796 130.618 45.8796C131.109 45.8796 131.559 45.8102 131.968 45.6714C132.377 45.5325 132.726 45.3242 133.017 45.0465C133.308 44.7688 133.53 44.4285 133.682 44.0259L137.774 44.2966C137.567 45.2825 137.141 46.1435 136.497 46.8794C135.86 47.6085 135.036 48.1778 134.025 48.5874C133.021 48.9901 131.861 49.1915 130.545 49.1915Z" fill="white"/>
<path d="M147.672 49.1915C146.037 49.1915 144.632 48.8443 143.454 48.15C142.284 47.4488 141.384 46.4767 140.754 45.2339C140.131 43.9911 139.819 42.5609 139.819 40.9431C139.819 39.3046 140.134 37.8674 140.764 36.6315C141.401 35.3887 142.305 34.4202 143.475 33.7259C144.646 33.0246 146.037 32.674 147.651 32.674C149.043 32.674 150.261 32.9274 151.307 33.4343C152.353 33.9411 153.18 34.6528 153.79 35.5692C154.399 36.4857 154.735 37.5619 154.797 38.7978H150.622C150.504 37.9993 150.192 37.3571 149.687 36.8711C149.188 36.3781 148.534 36.1316 147.724 36.1316C147.038 36.1316 146.439 36.3191 145.927 36.694C145.421 37.062 145.026 37.6001 144.742 38.3083C144.459 39.0165 144.317 39.8739 144.317 40.8807C144.317 41.9013 144.455 42.7692 144.732 43.4843C145.016 44.1994 145.414 44.7445 145.927 45.1194C146.439 45.4943 147.038 45.6818 147.724 45.6818C148.229 45.6818 148.683 45.5776 149.084 45.3693C149.493 45.161 149.829 44.859 150.092 44.4633C150.362 44.0606 150.538 43.578 150.622 43.0156H154.797C154.728 44.2376 154.396 45.3138 153.8 46.2442C153.211 47.1676 152.398 47.8896 151.359 48.4104C150.32 48.9311 149.091 49.1915 147.672 49.1915Z" fill="white"/>
<path d="M157.338 48.879V32.8823H161.628V35.6734H161.794C162.085 34.6805 162.573 33.9307 163.258 33.4238C163.944 32.9101 164.733 32.6532 165.627 32.6532C165.848 32.6532 166.087 32.6671 166.343 32.6948C166.6 32.7226 166.825 32.7608 167.018 32.8094V36.7461C166.811 36.6836 166.523 36.6281 166.156 36.5795C165.789 36.5309 165.453 36.5066 165.149 36.5066C164.498 36.5066 163.916 36.6489 163.404 36.9335C162.898 37.2113 162.497 37.6001 162.199 38.1C161.908 38.5999 161.763 39.1761 161.763 39.8288V48.879H157.338Z" fill="white"/>
<path d="M169.014 48.879V32.8823H173.439V48.879H169.014ZM171.237 30.8202C170.579 30.8202 170.014 30.6015 169.543 30.1641C169.08 29.7197 168.848 29.1886 168.848 28.5707C168.848 27.9597 169.08 27.4355 169.543 26.9981C170.014 26.5537 170.579 26.3315 171.237 26.3315C171.894 26.3315 172.455 26.5537 172.919 26.9981C173.39 27.4355 173.626 27.9597 173.626 28.5707C173.626 29.1886 173.39 29.7197 172.919 30.1641C172.455 30.6015 171.894 30.8202 171.237 30.8202Z" fill="white"/>
<path d="M181.24 49.1811C180.222 49.1811 179.315 49.004 178.519 48.6499C177.722 48.2889 177.092 47.7577 176.628 47.0565C176.171 46.3483 175.943 45.4665 175.943 44.4112C175.943 43.5225 176.106 42.7761 176.431 42.1721C176.756 41.568 177.2 41.082 177.761 40.714C178.321 40.346 178.959 40.0683 179.672 39.8809C180.392 39.6934 181.147 39.5615 181.936 39.4851C182.864 39.3879 183.612 39.2977 184.18 39.2143C184.748 39.1241 185.16 38.9922 185.416 38.8186C185.672 38.645 185.8 38.3881 185.8 38.0479V37.9854C185.8 37.3258 185.592 36.8155 185.177 36.4545C184.768 36.0934 184.187 35.9129 183.432 35.9129C182.636 35.9129 182.002 36.09 181.531 36.4441C181.06 36.7912 180.749 37.2286 180.596 37.7563L176.504 37.423C176.711 36.451 177.12 35.6109 177.729 34.9027C178.339 34.1876 179.125 33.6391 180.087 33.2572C181.057 32.8684 182.179 32.674 183.453 32.674C184.339 32.674 185.187 32.7781 185.998 32.9864C186.815 33.1947 187.538 33.5176 188.168 33.955C188.805 34.3924 189.308 34.9548 189.675 35.6421C190.042 36.3226 190.225 37.1384 190.225 38.0896V48.879H186.029V46.6607H185.904C185.648 47.1606 185.305 47.6015 184.876 47.9834C184.446 48.3583 183.93 48.6534 183.328 48.8686C182.726 49.0769 182.03 49.1811 181.24 49.1811ZM182.507 46.1192C183.158 46.1192 183.733 45.9907 184.232 45.7338C184.73 45.47 185.122 45.1159 185.405 44.6716C185.689 44.2272 185.831 43.7238 185.831 43.1614V41.4639C185.693 41.5541 185.502 41.6375 185.26 41.7138C185.025 41.7833 184.758 41.8492 184.46 41.9117C184.162 41.9672 183.865 42.0193 183.567 42.0679C183.269 42.1096 182.999 42.1478 182.757 42.1825C182.237 42.2589 181.784 42.3804 181.396 42.547C181.008 42.7136 180.707 42.9393 180.492 43.2239C180.278 43.5017 180.17 43.8488 180.17 44.2654C180.17 44.8694 180.388 45.3311 180.825 45.6505C181.268 45.963 181.829 46.1192 182.507 46.1192Z" fill="white"/>
<path d="M104.711 78.2064V56.8774H119.046V60.5954H109.209V65.6777H118.308V69.3957H109.209V74.4884H119.087V78.2064H104.711Z" fill="white"/>
<path d="M135.52 66.7712L131.469 67.0212C131.4 66.674 131.251 66.3616 131.023 66.0839C130.794 65.7992 130.493 65.5735 130.119 65.4069C129.752 65.2333 129.312 65.1465 128.8 65.1465C128.114 65.1465 127.536 65.2924 127.065 65.584C126.594 65.8686 126.359 66.2505 126.359 66.7296C126.359 67.1114 126.511 67.4343 126.816 67.6981C127.121 67.9619 127.644 68.1737 128.384 68.3334L131.272 68.9166C132.823 69.236 133.98 69.7498 134.741 70.458C135.503 71.1662 135.884 72.0965 135.884 73.2491C135.884 74.2975 135.576 75.2174 134.959 76.0089C134.35 76.8004 133.512 77.4184 132.446 77.8627C131.386 78.3001 130.164 78.5188 128.779 78.5188C126.667 78.5188 124.984 78.0779 123.731 77.1962C122.485 76.3075 121.754 75.0994 121.539 73.5719L125.892 73.3428C126.023 73.9885 126.342 74.4814 126.847 74.8217C127.353 75.1549 128 75.3216 128.79 75.3216C129.565 75.3216 130.188 75.1723 130.659 74.8737C131.137 74.5682 131.379 74.176 131.386 73.6969C131.379 73.2942 131.21 72.9644 130.877 72.7075C130.545 72.4437 130.033 72.2423 129.34 72.1035L126.577 71.5515C125.019 71.2391 123.859 70.6975 123.097 69.9268C122.343 69.1561 121.965 68.1737 121.965 66.9795C121.965 65.9519 122.242 65.0667 122.796 64.3238C123.357 63.5809 124.143 63.0081 125.154 62.6054C126.172 62.2027 127.363 62.0014 128.727 62.0014C130.742 62.0014 132.328 62.4283 133.485 63.2823C134.648 64.1363 135.326 65.2993 135.52 66.7712Z" fill="white"/>
<path d="M138.378 84.2052V62.2096H142.74V64.8966H142.938C143.132 64.4661 143.412 64.0287 143.779 63.5844C144.153 63.1331 144.638 62.7581 145.233 62.4596C145.836 62.1541 146.584 62.0014 147.477 62.0014C148.64 62.0014 149.714 62.3068 150.697 62.9178C151.68 63.5219 152.466 64.4349 153.055 65.6569C153.643 66.8719 153.938 68.3959 153.938 70.2288C153.938 72.0132 153.65 73.5198 153.075 74.7488C152.508 75.9707 151.732 76.8976 150.749 77.5294C149.772 78.1543 148.678 78.4667 147.466 78.4667C146.608 78.4667 145.877 78.3244 145.275 78.0397C144.679 77.7551 144.191 77.3975 143.81 76.9671C143.429 76.5296 143.139 76.0888 142.938 75.6444H142.803V84.2052H138.378ZM142.709 70.208C142.709 71.1592 142.841 71.9889 143.104 72.6971C143.367 73.4053 143.748 73.9573 144.246 74.353C144.745 74.7418 145.351 74.9362 146.064 74.9362C146.784 74.9362 147.394 74.7383 147.892 74.3426C148.391 73.9399 148.768 73.3845 149.025 72.6763C149.288 71.9611 149.419 71.1384 149.419 70.208C149.419 69.2846 149.291 68.4723 149.035 67.771C148.779 67.0698 148.401 66.5213 147.903 66.1255C147.404 65.7298 146.791 65.5319 146.064 65.5319C145.344 65.5319 144.735 65.7228 144.236 66.1047C143.744 66.4866 143.367 67.0281 143.104 67.7294C142.841 68.4306 142.709 69.2568 142.709 70.208Z" fill="white"/>
<path d="M161.145 78.5084C160.127 78.5084 159.22 78.3314 158.423 77.9773C157.627 77.6162 156.997 77.0851 156.533 76.3838C156.076 75.6757 155.847 74.7939 155.847 73.7385C155.847 72.8498 156.01 72.1035 156.335 71.4994C156.661 70.8954 157.104 70.4094 157.665 70.0414C158.226 69.6734 158.863 69.3957 159.576 69.2082C160.296 69.0208 161.051 68.8888 161.841 68.8125C162.768 68.7153 163.516 68.625 164.084 68.5417C164.652 68.4514 165.064 68.3195 165.32 68.1459C165.576 67.9724 165.704 67.7155 165.704 67.3753V67.3128C165.704 66.6532 165.497 66.1429 165.081 65.7818C164.673 65.4208 164.091 65.2403 163.336 65.2403C162.54 65.2403 161.906 65.4173 161.435 65.7714C160.965 66.1186 160.653 66.556 160.501 67.0837L156.408 66.7504C156.616 65.7784 157.024 64.9383 157.634 64.2301C158.243 63.5149 159.029 62.9664 159.992 62.5846C160.961 62.1958 162.083 62.0014 163.357 62.0014C164.243 62.0014 165.092 62.1055 165.902 62.3138C166.719 62.5221 167.443 62.8449 168.073 63.2823C168.71 63.7198 169.212 64.2821 169.579 64.9695C169.946 65.6499 170.129 66.4657 170.129 67.4169V78.2064H165.933V75.9881H165.808C165.552 76.488 165.209 76.9289 164.78 77.3107C164.351 77.6857 163.835 77.9807 163.232 78.196C162.63 78.4043 161.934 78.5084 161.145 78.5084ZM162.412 75.4465C163.063 75.4465 163.637 75.3181 164.136 75.0612C164.635 74.7974 165.026 74.4433 165.31 73.9989C165.594 73.5546 165.736 73.0512 165.736 72.4888V70.7912C165.597 70.8815 165.407 70.9648 165.164 71.0412C164.929 71.1106 164.662 71.1766 164.365 71.2391C164.067 71.2946 163.769 71.3467 163.471 71.3953C163.174 71.4369 162.903 71.4751 162.661 71.5098C162.142 71.5862 161.688 71.7077 161.3 71.8743C160.913 72.041 160.611 72.2666 160.397 72.5513C160.182 72.829 160.075 73.1762 160.075 73.5927C160.075 74.1968 160.293 74.6585 160.729 74.9779C161.172 75.2903 161.733 75.4465 162.412 75.4465Z" fill="white"/>
<path d="M180.478 78.5188C178.844 78.5188 177.438 78.1717 176.261 77.4774C175.091 76.7761 174.191 75.8041 173.561 74.5613C172.937 73.3185 172.626 71.8882 172.626 70.2705C172.626 68.632 172.941 67.1947 173.571 65.9589C174.208 64.7161 175.112 63.7475 176.282 63.0532C177.452 62.352 178.844 62.0014 180.458 62.0014C181.85 62.0014 183.068 62.2548 184.114 62.7616C185.16 63.2685 185.987 63.9801 186.596 64.8966C187.206 65.8131 187.542 66.8892 187.604 68.1251H183.428C183.311 67.3267 182.999 66.6844 182.494 66.1984C181.995 65.7055 181.341 65.459 180.53 65.459C179.845 65.459 179.246 65.6464 178.733 66.0214C178.228 66.3894 177.833 66.9274 177.549 67.6356C177.265 68.3438 177.123 69.2013 177.123 70.208C177.123 71.2286 177.262 72.0965 177.539 72.8116C177.823 73.5268 178.221 74.0718 178.733 74.4467C179.246 74.8217 179.845 75.0091 180.53 75.0091C181.036 75.0091 181.489 74.905 181.891 74.6967C182.3 74.4884 182.635 74.1864 182.899 73.7906C183.169 73.3879 183.345 72.9054 183.428 72.343H187.604C187.535 73.565 187.202 74.6411 186.607 75.5715C186.018 76.4949 185.205 77.217 184.166 77.7377C183.127 78.2585 181.898 78.5188 180.478 78.5188ZM179.44 78.1231H181.476L181.309 79.0291C182.023 79.1402 182.604 79.4075 183.054 79.8311C183.511 80.2546 183.743 80.8308 183.75 81.5599C183.757 82.5944 183.28 83.4171 182.317 84.0281C181.354 84.646 180.004 84.955 178.266 84.955L178.224 82.9762C179.097 82.9762 179.779 82.8686 180.271 82.6534C180.769 82.4451 181.029 82.1188 181.05 81.6744C181.064 81.2509 180.901 80.9281 180.562 80.7059C180.222 80.4837 179.692 80.3275 178.972 80.2372L179.44 78.1231Z" fill="white"/>
<path d="M197.353 78.5188C195.74 78.5188 194.344 78.1751 193.167 77.4878C191.997 76.7935 191.093 75.8284 190.456 74.5925C189.819 73.3497 189.501 71.9091 189.501 70.2705C189.501 68.6181 189.819 67.1739 190.456 65.9381C191.093 64.6952 191.997 63.7302 193.167 63.0428C194.344 62.3485 195.74 62.0014 197.353 62.0014C198.967 62.0014 200.359 62.3485 201.529 63.0428C202.706 63.7302 203.613 64.6952 204.25 65.9381C204.887 67.1739 205.206 68.6181 205.206 70.2705C205.206 71.9091 204.887 73.3497 204.25 74.5925C203.613 75.8284 202.706 76.7935 201.529 77.4878C200.359 78.1751 198.967 78.5188 197.353 78.5188ZM197.374 75.082C198.108 75.082 198.721 74.8737 199.212 74.4571C199.704 74.0336 200.075 73.4574 200.324 72.7283C200.58 71.9993 200.708 71.1696 200.708 70.2393C200.708 69.3089 200.58 68.4792 200.324 67.7502C200.075 67.0212 199.704 66.4449 199.212 66.0214C198.721 65.5978 198.108 65.3861 197.374 65.3861C196.633 65.3861 196.01 65.5978 195.504 66.0214C195.006 66.4449 194.628 67.0212 194.372 67.7502C194.123 68.4792 193.998 69.3089 193.998 70.2393C193.998 71.1696 194.123 71.9993 194.372 72.7283C194.628 73.4574 195.006 74.0336 195.504 74.4571C196.01 74.8737 196.633 75.082 197.374 75.082Z" fill="white"/>
</svg>
