<svg width="52" height="51" viewBox="0 0 52 51" fill="none" xmlns="http://www.w3.org/2000/svg">
<rect x="0.5" width="51" height="51" rx="25.5" fill="white"/>
<path d="M39.5 23.5C39.5 16.0442 33.4558 10 26 10C18.5442 10 12.5 16.0442 12.5 23.5C12.5 30.2382 17.4368 35.8233 23.8906 36.836V27.4023H20.4629V23.5H23.8906V20.5258C23.8906 17.1423 25.9061 15.2734 28.9898 15.2734C30.4668 15.2734 32.0117 15.5371 32.0117 15.5371V18.8594H30.3095C28.6324 18.8594 28.1094 19.9 28.1094 20.9677V23.5H31.8535L31.255 27.4023H28.1094V36.836C34.5632 35.8233 39.5 30.2383 39.5 23.5Z" fill="#1877F2"/>
</svg>
