<svg width="52" height="51" viewBox="0 0 52 51" fill="none" xmlns="http://www.w3.org/2000/svg">
<rect x="0.5" width="51" height="51" rx="25.5" fill="white"/>
<path d="M33.1016 9C33.1738 9 33.2459 9 33.3222 9C33.4991 11.1862 32.6647 12.8197 31.6505 14.0026C30.6554 15.1774 29.2928 16.3168 27.0889 16.1439C26.9419 13.989 27.7777 12.4767 28.7905 11.2964C29.7298 10.1965 31.4518 9.2178 33.1016 9Z" fill="black"/>
<path d="M39.7732 31.7551C39.7732 31.7768 39.7732 31.7959 39.7732 31.8163C39.1538 33.6921 38.2703 35.2998 37.1922 36.7917C36.208 38.1462 35.002 39.9689 32.8484 39.9689C30.9876 39.9689 29.7516 38.7724 27.8444 38.7397C25.8271 38.707 24.7176 39.7402 22.8731 40.0002C22.6621 40.0002 22.4511 40.0002 22.2442 40.0002C20.8898 39.8042 19.7967 38.7315 19.0003 37.765C16.6522 34.9091 14.8376 31.2201 14.5 26.4992C14.5 26.0364 14.5 25.5749 14.5 25.1121C14.6429 21.7335 16.2846 18.9864 18.4667 17.6551C19.6183 16.9473 21.2015 16.3442 22.9643 16.6138C23.7198 16.7308 24.4917 16.9895 25.1682 17.2454C25.8094 17.4918 26.6111 17.9287 27.3707 17.9056C27.8853 17.8906 28.3971 17.6225 28.9158 17.4332C30.4349 16.8846 31.9241 16.2557 33.8871 16.5511C36.2461 16.9078 37.9205 17.956 38.9551 19.5731C36.9594 20.8432 35.3817 22.7571 35.6513 26.0255C35.8909 28.9944 37.6169 30.7314 39.7732 31.7551Z" fill="black"/>
</svg>
